<?xml version="1.0" encoding="utf-8"?>
<!-- Generator: Adobe Illustrator 19.0.0, SVG Export Plug-In . SVG Version: 6.00 Build 0)  -->
<svg version="1.1" id="Layer_1" xmlns="http://www.w3.org/2000/svg" xmlns:xlink="http://www.w3.org/1999/xlink" x="0px" y="0px"
	 viewBox="-1063 1119 372 264" style="enable-background:new -1063 1119 372 264;" xml:space="preserve">
<style type="text/css">
	.st0{fill:#432616;}
	.st1{fill:#6B493A;}
	.st2{fill:#FFFFFF;}
	.st3{fill:#6B4839;}
</style>
<g>
	<path class="st0" d="M-688.2,1446.5l-1.8,5.1c-5.8,19.1-20.6,29.5-40.7,23.9l0,0c-49.6-13.5-80.7-78.4-64.4-130.1l1.8-5.1
		c6.3-19.7,12.8-28.2,32.9-22.5l0,0C-703.4,1333.7-670.8,1391.5-688.2,1446.5"/>
	<path class="st1" d="M-923.2,1437.1l5.2-0.9c2.1-0.3,4.1-0.7,5.6-1.5c-18.5,1-35-12.2-38.2-30.8l0,0c-9.6-56.9,34-101.4,77.5-108.7
		l0,0l-5.2,0.9c-56.9,9.6-97.4,53.1-87.8,110.5l0,0C-962.1,1427.2-943.4,1440.5-923.2,1437.1"/>
	<path class="st1" d="M-719,1196.4l4.2,3c17.3,10.9,21.6,33.6,10.1,50.4l0,0c-32.2,49-68.1,56.7-118.4,23.6l-4.2-3
		c-17.3-10.9-21.6-33.6-10.1-50.4l0,0C-804.2,1174.1-768.2,1166.4-719,1196.4"/>
</g>
<path class="st2" d="M-772,1178.8c16,0,33.5,6.1,53,17.7l4.2,3c17.3,10.9,21.6,33.6,10.1,50.4c-15.3,22.8-31.1,36.6-48.8,41.7l0,0
	c25.6-5.9,48.6-20.9,64.4-44.3l0,0c11.5-16.8,7.3-39-10.1-50.4l-4.2-3C-724.2,1181.4-748.5,1176.4-772,1178.8
	C-772.1,1178.2-772,1178.8-772,1178.8"/>
<path class="st0" d="M-842.9,1272.6l4.2,3c24.5,16.1,53.1,21.4,79.9,16.4l0,0c-18.6,3.1-39.8-2.9-64.3-19l-4.2-3
	c-17.3-10.9-21.6-33.6-10.1-50.4c18.2-24.9,37.1-38.7,59.1-40.8l0,0c-29.1,4.4-56.4,19-74.6,43.4
	C-865,1239.1-860.7,1261.7-842.9,1272.6"/>
<g>
	<path class="st3" d="M-858.4,1275.2l4.2,3c24.5,16.1,53.1,21.4,79.9,16.4l0,0c-18.6,3.1-39.8-2.9-64.3-19l-4.2-3
		c-17.3-10.9-21.6-33.6-10.1-50.4c18.2-24.9,37.1-38.7,59.1-40.8l0,0c-29.1,4.4-56.4,19-74.6,43.4
		C-880.6,1241.7-876.2,1264.3-858.4,1275.2"/>
	<path class="st3" d="M-866.5,1299.9l5.2-0.9c20.2-3.4,33.7,10.8,37.1,31l0,0c9.6,56.9-41.6,113.4-70.5,118.2l-5.2,0.9
		c-20.2,3.4-38.9-9.9-42.3-30.1l0,0C-951.9,1361.6-910,1307.2-866.5,1299.9"/>
</g>
<path class="st0" d="M-913.4,1451.4l5.2-0.9c2.1-0.3,4.1-0.7,5.6-1.5c-18.5,1-35-12.2-38.2-30.8l0,0
	c-9.6-56.9,32.3-111.8,75.7-119.1l0,0l-5.2,0.9c-56.9,9.6-95.7,63.4-86.1,120.8l0,0C-952.3,1441.5-933.6,1454.8-913.4,1451.4"/>
<path class="st3" d="M-672.7,1443.9l-1.8,5.1c-5.8,19.1-20.6,29.5-40.7,23.9l0,0c-49.6-13.5-80.7-78.4-64.4-130.1l1.8-5.1
	c6.3-19.7,12.8-28.2,32.9-22.5l0,0C-687.9,1331.1-655.3,1388.9-672.7,1443.9"/>
<path class="st2" d="M-745.3,1315.2c57.4,15.9,90,73.7,72.7,128.7l-1.8,5.1c-3.9,11.8-10.9,20.5-20.5,23.7
	c16.4-0.6,31.2-10.6,36-26.3l1.8-5.1c17.3-55-14.7-112.9-72.7-128.7l0,0c-8.4-2.3-16.7-1.4-24.3,0.9
	C-751.5,1313.6-748.7,1314.2-745.3,1315.2"/>
<path d="M-872.6,1295.6l5.2-0.9c22.8-3.8,44.5,11.7,48.3,34.4c10.1,60-30.4,116.8-90.4,126.9l-5.2,0.9
	c-22.8,3.8-44.5-11.7-48.3-34.4C-973,1362.5-932.6,1305.7-872.6,1295.6z M-911.2,1445.7c54.3-9.1,90.9-60.5,81.8-114.8
	c-2.9-17.1-19.2-28.7-36.2-25.8l-5.2,0.9c-54.3,9.1-90.9,60.5-81.8,114.8c2.9,17.1,19.2,28.7,36.2,25.8L-911.2,1445.7L-911.2,1445.7
	z"/>
<path d="M-839.7,1301.3c3.1-0.5,5.5,1.2,6,4.3c6.2,36.7-18.8,71.8-56,78c-33.1,5.6-53.2,31.3-48.3,60.8c0.5,3.1-1.2,5.5-4.3,6
	s-5.5-1.2-6-4.3c-6-35.7,18.1-66.3,56.9-72.8c31.6-5.3,52.6-34.9,47.4-65.9C-844.4,1304.7-842.8,1301.8-839.7,1301.3z"/>
<path d="M-747.9,1306.6c6.2-1,12.7-0.5,19.3,1c27.3,7.1,49.8,24.1,64.7,46.6c1.5,2.4,1,5.7-1.5,7.2c-2.4,1.5-5.7,1-7.2-1.5
	c-13-20.7-33.6-35.3-58.2-42.3c-17.3-5.1-35.9,5-41.1,21.3l-1.8,5.1c-8.1,24.8-5.3,50.9,7.1,73.8c13.1,23.9,35.1,40.9,61.9,48.6
	c16.7,4.6,35.3-4.9,40.5-21.7l1.9-4.6c4.6-14.1,5.4-28,3.6-42.1c-0.5-3.1,1.7-5.6,4.3-6c3.1-0.5,5.6,1.7,6,4.3
	c2.1,15.6,1,31.2-3.9,46.4l-1.8,5.1c-7,21.9-31.3,35-54.3,28.3c-29.6-8.3-54-27.1-68.5-53.4c-13.8-25.3-16.5-54.1-7.9-81.6l1.8-5.1
	C-777.5,1320.1-763.4,1309.2-747.9,1306.6z"/>
<path d="M-759,1310.1c0.5-0.1,1.6-0.3,2.2,0.2c17.9,5,31.5,16.5,38.9,32.3c7.4,15.8,7.5,34.9,0.2,51.6c-8.2,30.6,10.2,60.5,41.9,69
	c2.8,0.6,4.3,3.5,3.7,6.3c-0.6,2.8-3.5,4.3-6.3,3.7c-37.3-10.2-58.7-45.4-49.3-81.6c-0.1-0.5,0.4-0.6,0.4-0.6
	c6.1-14.3,6.7-29.8,0.2-43.1c-5.9-12.8-17.6-22.6-32.2-27c-2.8-0.6-4.3-3.5-3.7-6.3C-762.9,1312.3-761,1310.4-759,1310.1z"/>
<path d="M-782.4,1174.1c27.4-4.6,56.9,0,81.8,15l0,0l4.2,3c9.6,6.4,15.9,15.4,18.3,26.7c2.3,10.8-0.6,21.9-6.9,31.5
	c-34,50.9-104,64.8-156.6,30l-4.2-3c-9.5-5.9-15.9-15.4-18.2-26.2c-2.3-10.8,0.6-21.9,6.9-31.5
	C-839,1194.8-811.8,1179.1-782.4,1174.1z M-706,1198c-46.8-28.3-110.6-16-142.1,27.6c-4.7,6.6-7.1,15-5.1,23.2
	c1.4,8.3,6.2,14.9,13.4,19.6l4.7,2.9c47.8,31.3,111.7,19,142.2-27.1c4.1-7.1,5.9-15.4,4.5-23.6c-1.4-8.3-6.2-14.9-13.4-19.6
	L-706,1198z"/>
<path d="M-821.3,1217.9c16.6-2.8,34.4,2.2,51.9,14.7c29.6,21.1,57.4,15.9,82.4-16c1.7-2.4,4.9-2.4,7.3-0.7c2.4,1.7,2.4,4.9,0.7,7.3
	c-28.1,35.6-62.6,41.9-96.5,17.8c-29.7-21.6-58.2-17.3-79.5,11.2c-1.7,2.4-4.8,2.9-7.2,1.2c-2.4-1.7-2.9-4.8-1.2-7.2
	C-851.2,1229.8-836.8,1220.5-821.3,1217.9z"/>
<path d="M-662.1,1377.3c0.5,3.1,2.9,4.8,6,4.3s4.8-2.9,4.3-6c-0.5-3.1-2.9-4.8-6-4.3S-662.6,1374.2-662.1,1377.3"/>
</svg>
