<?xml version="1.0" encoding="utf-8"?>
<!-- Generator: Adobe Illustrator 19.0.0, SVG Export Plug-In . SVG Version: 6.00 Build 0)  -->
<svg version="1.1" id="Layer_1" xmlns="http://www.w3.org/2000/svg" xmlns:xlink="http://www.w3.org/1999/xlink" x="0px" y="0px"
	 viewBox="-964 1005 570 492" style="enable-background:new -964 1005 570 492;" xml:space="preserve">
<style type="text/css">
	.st0{fill:#432616;}
	.st1{fill:#6B493A;}
	.st2{fill:#FFFFFF;}
	.st3{fill:#6B4839;}
</style>
<g>
	<path class="st0" d="M-646.7,1476.1l-2.9,8.3c-9.5,31-33.5,48-66.2,38.8l0,0c-80.7-21.9-131.3-127.6-104.8-211.7l2.9-8.3
		c10.2-32,20.8-45.9,53.5-36.7l0,0C-671.5,1292.5-618.5,1386.6-646.7,1476.1"/>
	<path class="st1" d="M-1029.1,1460.8l8.4-1.4c3.4-0.6,6.7-1.1,9.1-2.4c-30,1.6-57-19.8-62.1-50.1l0,0
		c-15.6-92.6,55.3-165.1,126-176.9l0,0l-8.4,1.4c-92.6,15.6-158.6,86.3-142.9,179.8l0,0C-1092.4,1444.6-1061.9,1466.3-1029.1,1460.8
		"/>
	<path class="st1" d="M-696.9,1069.2l6.9,4.9c28.1,17.8,35.1,54.7,16.4,82l0,0c-52.4,79.8-110.8,92.2-192.6,38.4l-6.9-4.9
		c-28.1-17.8-35.1-54.7-16.4-82l0,0C-835.4,1032.8-776.9,1020.4-696.9,1069.2"/>
</g>
<path class="st2" d="M-783.1,1040.4c26,0,54.4,9.9,86.2,28.8l6.9,4.9c28.1,17.8,35.1,54.7,16.4,82c-24.9,37.1-50.6,59.5-79.5,67.9
	l0,0c41.7-9.6,79.1-34.1,104.7-72.1l0,0c18.8-27.4,11.8-63.4-16.4-82l-6.9-4.9C-705.3,1044.7-744.8,1036.6-783.1,1040.4
	C-783.2,1039.6-783.1,1040.4-783.1,1040.4"/>
<path class="st0" d="M-898.5,1193.1l6.9,4.9c39.9,26.2,86.3,34.8,129.9,26.6l0,0c-30.3,5.1-64.8-4.7-104.7-30.9l-6.9-4.9
	c-28.1-17.8-35.1-54.7-16.4-82c29.5-40.4,60.4-62.9,96.1-66.3l0,0c-47.3,7.1-91.7,31-121.4,70.6
	C-934.4,1138.6-927.4,1175.4-898.5,1193.1"/>
<g>
	<path class="st3" d="M-923.7,1197.3l6.9,4.9c39.9,26.2,86.3,34.8,129.9,26.6l0,0c-30.3,5.1-64.8-4.7-104.7-30.9l-6.9-4.9
		c-28.1-17.8-35.1-54.7-16.4-82c29.5-40.4,60.4-62.9,96.1-66.3l0,0c-47.3,7.1-91.7,31-121.4,70.6
		C-959.7,1142.8-952.6,1179.7-923.7,1197.3"/>
	<path class="st3" d="M-936.8,1237.6l8.4-1.4c32.8-5.5,54.9,17.6,60.4,50.4l0,0c15.6,92.6-67.7,184.4-114.8,192.3l-8.4,1.4
		c-32.8,5.5-63.3-16.2-68.8-49l0,0C-1075.7,1338-1007.5,1249.5-936.8,1237.6"/>
</g>
<path class="st0" d="M-1013.1,1484l8.4-1.4c3.4-0.6,6.7-1.1,9.1-2.4c-30,1.6-57-19.8-62.1-50.1l0,0
	c-15.6-92.6,52.5-181.9,123.2-193.8l0,0l-8.4,1.4c-92.6,15.6-155.7,103.2-140,196.6l0,0C-1076.4,1467.9-1045.9,1489.6-1013.1,1484"
	/>
<path class="st3" d="M-621.4,1471.9l-2.9,8.3c-9.5,31-33.5,48-66.2,38.8l0,0c-80.7-21.9-131.3-127.6-104.8-211.7l2.9-8.3
	c10.2-32,20.8-45.9,53.5-36.7l0,0C-646.2,1288.3-593.2,1382.3-621.4,1471.9"/>
<path class="st2" d="M-739.7,1262.4c93.5,25.8,146.5,119.9,118.3,209.4l-2.9,8.3c-6.3,19.2-17.8,33.3-33.3,38.5
	c26.7-1,50.8-17.2,58.6-42.7l2.9-8.3c28.2-89.5-24-183.7-118.3-209.4l0,0c-13.6-3.8-27.2-2.3-39.6,1.5
	C-749.7,1259.8-745.2,1260.8-739.7,1262.4"/>
<path d="M-946.7,1230.6l8.4-1.4c37-6.2,72.4,19,78.6,56c16.4,97.6-49.4,190-147,206.4l-8.4,1.4c-37,6.2-72.4-19-78.6-56
	C-1110.1,1339.4-1044.3,1247-946.7,1230.6z M-1009.5,1474.8c88.4-14.8,147.9-98.4,133-186.8c-4.7-27.8-31.2-46.7-59-42l-8.4,1.4
	c-88.4,14.8-147.9,98.4-133,186.8c4.7,27.8,31.2,46.7,59,42L-1009.5,1474.8L-1009.5,1474.8z"/>
<path d="M-893.2,1239.8c5-0.8,9,2,9.8,7c10,59.7-30.6,116.8-91.2,126.9c-53.9,9.1-86.6,50.9-78.6,98.9c0.8,5-2,9-7,9.8
	c-5,0.8-9-2-9.8-7c-9.8-58.1,29.5-107.9,92.6-118.5c51.3-8.6,85.6-56.8,77.2-107.3C-900.9,1245.4-898.2,1240.6-893.2,1239.8z"/>
<path d="M-743.8,1248.4c10.1-1.7,20.6-0.9,31.4,1.6c44.3,11.6,81,39.2,105.3,75.8c2.4,3.9,1.6,9.3-2.4,11.6s-9.3,1.6-11.6-2.4
	c-21.2-33.6-54.6-57.4-94.6-68.9c-28.2-8.2-58.3,8.1-66.9,34.6l-2.9,8.3c-13.1,40.3-8.6,82.8,11.5,120.1
	c21.2,38.8,57,66.6,100.7,79.1c27.2,7.5,57.5-7.9,65.9-35.3l3.1-7.4c7.4-22.9,8.8-45.6,5.8-68.5c-0.8-5,2.8-9.1,7-9.8
	c5-0.8,9.1,2.8,9.8,7c3.4,25.4,1.6,50.8-6.4,75.5l-2.9,8.3c-11.3,35.6-51,57-88.3,46c-48.1-13.5-87.9-44.1-111.5-86.8
	c-22.5-41.2-26.9-88.1-12.8-132.8l2.9-8.3C-792,1270.4-769,1252.7-743.8,1248.4z"/>
<path d="M-761.9,1254.1c0.8-0.1,2.5-0.4,3.5,0.3c29.1,8.1,51.2,26.9,63.3,52.5c12.1,25.7,12.1,56.8,0.3,83.9
	c-13.3,49.8,16.5,98.5,68.2,112.3c4.5,1,7,5.7,6,10.2c-1,4.5-5.7,7-10.2,6c-60.8-16.6-95.5-73.9-80.3-132.7c-0.1-0.8,0.7-1,0.7-1
	c9.9-23.3,10.9-48.6,0.3-70.1c-9.6-20.9-28.7-36.7-52.4-44c-4.5-1-7-5.7-6-10.2C-768.2,1257.7-765.2,1254.6-761.9,1254.1z"/>
<path d="M-799.9,1032.9c44.6-7.5,92.6,0,133,24.4l0,0l6.9,4.9c15.6,10.4,25.8,25.1,29.8,43.4c3.8,17.5-0.9,35.6-11.3,51.2
	c-55.3,82.8-169.2,105.4-254.8,48.9l-6.9-4.9c-15.4-9.5-25.8-25.1-29.7-42.6c-3.8-17.5,0.9-35.6,11.3-51.2
	C-892,1066.5-847.9,1040.9-799.9,1032.9z M-675.7,1071.7c-76.1-46.1-180-26-231.3,44.9c-7.7,10.8-11.5,24.4-8.4,37.7
	c2.3,13.5,10.1,24.3,21.8,31.8l7.7,4.8c77.8,51,181.7,30.9,231.4-44.1c6.7-11.5,9.6-25,7.4-38.4c-2.3-13.5-10.1-24.3-21.8-31.8
	L-675.7,1071.7z"/>
<path d="M-863.2,1104.1c26.9-4.5,56,3.6,84.5,23.9c48.2,34.3,93.5,25.8,134.1-26c2.8-3.9,8-3.9,11.9-1.1c3.9,2.8,3.9,8,1.1,11.9
	c-45.7,57.9-101.9,68.2-156.9,29c-48.3-35.1-94.7-28.2-129.3,18.3c-2.8,3.9-7.8,4.8-11.8,2c-3.9-2.8-4.8-7.8-2-11.8
	C-911.9,1123.5-888.5,1108.3-863.2,1104.1z"/>
<path d="M-604.2,1363.4c0.8,5,4.8,7.8,9.8,7c5-0.8,7.8-4.8,7-9.8s-4.8-7.8-9.8-7C-602.2,1354.4-605,1358.4-604.2,1363.4"/>
</svg>
