<?xml version="1.0" encoding="utf-8"?>
<!-- Generator: Adobe Illustrator 19.0.0, SVG Export Plug-In . SVG Version: 6.00 Build 0)  -->
<svg version="1.1" id="Layer_1" xmlns="http://www.w3.org/2000/svg" xmlns:xlink="http://www.w3.org/1999/xlink" x="0px" y="0px"
	 viewBox="-1214 1210 71 82" style="enable-background:new -1214 1210 71 82;" xml:space="preserve">
<style type="text/css">
	.st0{fill:#432616;}
	.st1{fill:#6B493A;}
	.st2{fill:#FFFFFF;}
	.st3{fill:#6B4839;}
</style>
<g>
	<path class="st0" d="M-1205.9,1281.7l-0.8-1.2c-3.1-4.3-2.7-9.3,2.1-13l0,0c11.8-9.1,31.4-5.9,39.6,5.9l0.8,1.2
		c3.1,4.5,3.8,7.4-1,11l0,0C-1178.6,1296.1-1197,1294.3-1205.9,1281.7"/>
	<path class="st1" d="M-1161.9,1230l-0.7,1.3c-0.3,0.5-0.5,1.1-0.7,1.5c3.1-4.4,8.9-6,13.5-3.7l0,0c14.1,6.8,15.9,23.7,9.7,34.6l0,0
		l0.7-1.3c8.1-14.4,5.9-30.4-8.3-37.1l0,0C-1152.8,1223-1159,1225-1161.9,1230"/>
	<path class="st1" d="M-1146.2,1314.1l-1.4,0.5c-5.4,2.1-11.1-0.4-12.7-5.7l0,0c-4.8-15-0.1-24.3,16-30.4l1.4-0.5
		c5.4-2.1,11.1,0.4,12.7,5.7l0,0C-1126.1,1298.4-1131,1307.7-1146.2,1314.1"/>
</g>
<path class="st2" d="M-1132.9,1304.9c-2.9,3.6-7.2,6.6-13.3,9.2l-1.4,0.5c-5.4,2.1-11.1-0.4-12.7-5.7c-2.2-7.1-2.4-12.8-0.3-17.6
	l0,0c-3.3,6.8-4.1,14.3-1.9,21.5l0,0c1.6,5.3,7.1,7.8,12.7,5.7l1.4-0.5C-1141.9,1315.3-1136.6,1310.6-1132.9,1304.9
	C-1132.8,1305-1132.9,1304.9-1132.9,1304.9"/>
<path class="st0" d="M-1140.6,1274.2l-1.4,0.5c-7.8,3-14.1,8.7-17.8,15.5l0,0c2.7-4.7,7.7-8.6,15.5-11.6l1.4-0.5
	c5.4-2.1,11.1,0.4,12.7,5.7c2.2,8,1.8,14.4-1.8,19.8l0,0c4.3-7.2,6-15.8,3.8-23.7C-1129.5,1274.4-1135.1,1271.9-1140.6,1274.2"/>
<g>
	<path class="st3" d="M-1138.4,1270.2l-1.4,0.5c-7.8,3-14.1,8.7-17.8,15.5l0,0c2.7-4.7,7.7-8.6,15.5-11.6l1.4-0.5
		c5.4-2.1,11.1,0.4,12.7,5.7c2.2,8,1.8,14.4-1.8,19.8l0,0c4.3-7.2,6-15.8,3.8-23.7C-1127.2,1270.5-1132.9,1267.9-1138.4,1270.2"/>
	<path class="st3" d="M-1142.3,1264.6l-0.7,1.3c-2.8,5.1-8.3,5.9-13.4,3.5l0,0c-14.1-6.8-17.2-27.2-13-34.5l0.7-1.3
		c2.8-5.1,9.1-7.3,14-4.8l0,0C-1140.4,1235.4-1136.2,1253.6-1142.3,1264.6"/>
</g>
<path class="st0" d="M-1166.7,1230.1l-0.7,1.3c-0.3,0.5-0.5,1.1-0.7,1.5c3.1-4.4,8.9-6,13.5-3.7l0,0c14.1,6.8,18.5,24.9,12.3,35.9
	l0,0l0.7-1.3c8.1-14.4,3.4-31.6-10.9-38.4l0,0C-1157.7,1222.9-1163.9,1224.9-1166.7,1230.1"/>
<path class="st3" d="M-1208.1,1285.7l-0.8-1.2c-3.1-4.3-2.7-9.3,2.1-13l0,0c11.8-9.1,31.4-5.9,39.6,5.9l0.8,1.2
	c3.1,4.5,3.8,7.4-1,11l0,0C-1180.9,1300-1199.2,1298.3-1208.1,1285.7"/>
<path class="st2" d="M-1167.2,1289.5c-13.7,10.4-32,8.8-40.9-3.8l-0.8-1.2c-1.8-2.7-2.5-5.7-1.5-8.4c-2.8,3.9-3.3,8.7-0.8,12.3
	l0.8,1.2c8.8,12.6,27.1,14.4,40.9,3.8l0,0c2-1.6,3.2-3.5,4.1-5.7C-1165.8,1288.4-1166.5,1288.9-1167.2,1289.5"/>
<path d="M-1140.3,1263.9l-0.7,1.3c-3.2,5.8-10.5,8.2-16.1,5.5c-14.8-7.2-19.9-25.2-11.4-40.4l0.7-1.3c3.2-5.8,10.5-8.2,16.1-5.5
	C-1136.8,1230.6-1131.8,1248.7-1140.3,1263.9z M-1165.9,1231.5c-7.7,13.6-3.1,30.1,10.2,36.5c4.2,2,9.6,0.1,12-4.1l0.7-1.3
	c7.7-13.6,3.1-30.1-10.2-36.5c-4.2-2-9.6-0.1-12,4.1L-1165.9,1231.5L-1165.9,1231.5z"/>
<path d="M-1147.4,1270.4c-0.4,0.8-1.3,1-2.1,0.7c-9.1-4.4-12.2-15.5-6.9-25c4.7-8.4,2.7-17-4.5-20.5c-0.8-0.3-0.9-1.2-0.5-2
	s1.3-1,2.1-0.7c8.8,4.3,11.1,14.6,5.6,24.2c-4.4,8-1.8,17.4,5.9,21C-1147.3,1268.7-1147,1269.6-1147.4,1270.4z"/>
<path d="M-1164.9,1290.2c-0.9,1.5-2.1,3-3.6,4.2c-6.4,5.1-14.2,7.5-21.6,7.3c-0.7-0.1-1.4-0.7-1.4-1.5c0.1-0.7,0.8-1.4,1.6-1.5
	c6.8,0.3,13.6-2.1,19.5-6.4c4.1-3.1,5.4-8.9,2.7-12.7l-0.8-1.2c-3.9-5.7-10.1-9.2-17.2-10.1c-7.5-0.7-15.1,1.5-21.5,6.3
	c-4,3-5.3,8.8-2.5,12.5l0.6,1.1c2.2,3.2,5.2,5.6,8.5,7.4c0.8,0.3,0.8,1.3,0.5,2c-0.4,0.8-1.3,0.9-2.1,0.7c-3.8-1.9-6.9-4.7-9.3-8.2
	l-0.8-1.2c-3.5-5-2-12.6,3.5-16.7c7.2-5.4,15.5-7.9,23.8-7.2c8,0.8,14.7,4.7,19.1,11.1l0.8,1.2
	C-1162.5,1281.5-1162.7,1286.4-1164.9,1290.2z"/>
<path d="M-1163.7,1287.2c-0.1,0.1-0.2,0.4-0.5,0.5c-4.3,3.3-9.2,4.5-13.9,3.7c-4.8-0.8-8.9-3.8-11.2-8.2c-5.2-6.7-15-7.2-22.5-1.4
	c-0.6,0.5-1.6,0.4-2-0.1c-0.5-0.6-0.3-1.5,0.3-2c8.9-6.9,20.3-6.1,26.5,1.7c0.1,0.1,0,0.2,0,0.2c2,3.6,5.3,6.2,9.3,6.8
	c3.8,0.6,8-0.5,11.6-3c0.6-0.5,1.6-0.4,2,0.1C-1163.4,1286-1163.3,1286.7-1163.7,1287.2z"/>
<path d="M-1130,1303.3c-3.9,6.9-10.2,12.9-17.8,16.1l0,0l-1.4,0.5c-3.1,1.2-6.2,1.1-9.1-0.1c-2.8-1.1-4.6-3.6-5.6-6.6
	c-4.9-15.7,4.5-33.7,21.4-40.1l1.4-0.5c3-1.3,6.2-1.1,8.9,0.1c2.8,1.1,4.6,3.6,5.6,6.6C-1124.4,1287.3-1125.9,1295.8-1130,1303.3z
	 M-1148.8,1316.9c14.5-6.2,23.2-22.5,19.3-36.5c-0.6-2.1-2-4-4.2-4.8c-2-1-4.4-1-6.6,0l-1.5,0.5c-15.3,5.8-24.1,22.2-19.5,36.5
	c0.8,2.1,2.3,3.8,4.3,4.7c2,1,4.4,1,6.6,0L-1148.8,1316.9z"/>
<path d="M-1132.6,1287.6c-2.4,4.2-6.5,7.5-12.4,9.4c-9.8,3.4-13.7,10.4-11.3,21.1c0.3,0.8-0.3,1.5-1.2,1.8c-0.8,0.3-1.5-0.2-1.7-1
	c-2.7-11.9,2-20.8,13.4-24.6c10-3.3,14.1-10.4,11.7-19.7c-0.3-0.8,0.1-1.6,1-1.8c0.8-0.3,1.6,0,1.7,0.9
	C-1129.8,1279-1130.3,1283.7-1132.6,1287.6z"/>
<path d="M-1195.5,1298.6c-0.8-0.3-1.6,0-2.1,0.7s-0.1,1.6,0.5,2c0.7,0.4,1.6,0,2.1-0.7C-1194.5,1299.8-1194.8,1298.9-1195.5,1298.6"
	/>
</svg>
