<?xml version="1.0" encoding="utf-8"?>
<!-- Generator: Adobe Illustrator 19.0.0, SVG Export Plug-In . SVG Version: 6.00 Build 0)  -->
<svg version="1.1" id="Layer_1" xmlns="http://www.w3.org/2000/svg" xmlns:xlink="http://www.w3.org/1999/xlink" x="50px" y="50px"
	 viewBox="-1238 1240 22 22" style="enable-background:new -1238 1240 22 22;" xml:space="preserve">
<style type="text/css">
	.st0{fill:#FFFFFF;}
	.st1{fill:#F9EBDB;}
	.st2{fill:#F7CD95;}
	.st3{fill:#700D00;}
</style>
<path class="st0" d="M-1219.6,1250.9h-1h-9.2c0-1.3,1.1-2.4,2.5-2.4c0.1,0,0.1,0,0.2,0c0.2-1.1,1.2-1.9,2.4-1.9s2.2,0.8,2.4,1.9
	c0.1,0,0.1,0,0.2,0C-1220.7,1248.5-1219.6,1249.6-1219.6,1250.9z"/>
<path class="st1" d="M-1216.9,1260.4l-0.2,0.8c-0.1,0.3-0.4,0.5-0.7,0.5h-13.7c-0.3,0-0.6-0.2-0.7-0.5l-0.2-0.8H-1216.9z"/>
<path class="st2" d="M-1233.2,1250.9c-0.4,0.5-0.6,1.2-0.6,1.9c0,1.7,1.5,3.2,3.3,3.2h0.7c0.9,2,2.9,3.4,5.2,3.4
	c3.1,0,5.6-2.4,5.6-5.5v-2.9H-1233.2L-1233.2,1250.9z M-1230.6,1254.8c-1.2,0-2.1-0.9-2.1-2.1c0-0.3,0-0.5,0.1-0.8h2.2v1.8
	c0,0.3,0,0.7,0.1,1H-1230.6L-1230.6,1254.8z"/>
<g>
	<path class="st3" d="M-1216.5,1260.1h-16.4c-0.2,0-0.3,0.1-0.3,0.3s0.1,0.3,0.3,0.3h0.2l0.2,0.6c0.1,0.4,0.6,0.7,1,0.7h13.7
		c0.4,0,0.9-0.3,1-0.7l0.2-0.6h0.2c0.2,0,0.3-0.1,0.3-0.3S-1216.3,1260.1-1216.5,1260.1z M-1217.4,1261.1c-0.1,0.2-0.3,0.3-0.5,0.3
		h-13.7c-0.2,0-0.4-0.2-0.5-0.3l-0.1-0.4h14.9L-1217.4,1261.1z"/>
	<path class="st3" d="M-1230.6,1256.2h0.5c1,2,3.1,3.4,5.4,3.4c3.3,0,5.9-2.6,5.9-5.7v-2.9c0-0.2-0.1-0.3-0.3-0.3h-0.3
		c-0.1-1.3-1.3-2.4-2.7-2.4c-0.3-1.1-1.4-1.9-2.6-1.9s-2.3,0.8-2.6,1.9c-1.4,0-2.5,1.1-2.7,2.4h-3.2c-0.1,0-0.2,0-0.2,0.1
		c-0.4,0.6-0.7,1.3-0.7,2C-1234.1,1254.6-1232.5,1256.2-1230.6,1256.2z M-1227.3,1248.8c0,0,0.1,0,0.2,0c0.1,0,0.3-0.1,0.3-0.2
		c0.2-1,1.1-1.7,2.1-1.7c1,0,1.9,0.7,2.1,1.7c0,0.1,0.2,0.2,0.3,0.2c0.1,0,0.1,0,0.2,0c1.1,0,2,0.8,2.2,1.8h-9.5
		C-1229.3,1249.6-1228.4,1248.8-1227.3,1248.8z M-1233.1,1251.2h13.7v2.6c0,2.9-2.4,5.2-5.3,5.2c-2.2,0-4.1-1.2-4.9-3.2
		c0-0.1-0.1-0.2-0.3-0.2h-0.7c-1.6,0-3-1.3-3-2.9C-1233.6,1252.2-1233.4,1251.6-1233.1,1251.2z"/>
	<path class="st3" d="M-1230.6,1255.1h0.4c0.1,0,0.2,0,0.2-0.1c0.1-0.1,0.1-0.1,0.1-0.2c-0.1-0.3-0.1-0.6-0.1-1v-1.8
		c0-0.2-0.1-0.3-0.3-0.3h-2.2c-0.1,0-0.2,0.1-0.3,0.2c-0.1,0.3-0.2,0.6-0.2,0.9C-1233,1254-1231.9,1255.1-1230.6,1255.1z
		 M-1232.3,1252.3h1.7v1.5c0,0.2,0,0.5,0,0.7h0c-1,0-1.8-0.8-1.8-1.8C-1232.4,1252.6-1232.4,1252.4-1232.3,1252.3z"/>
</g>
</svg>
